<?xml version="1.0" encoding="utf-8"?>
<!-- Generator: Adobe Illustrator 25.2.3, SVG Export Plug-In . SVG Version: 6.00 Build 0)  -->
<svg version="1.1" id="Layer_1" xmlns="http://www.w3.org/2000/svg" xmlns:xlink="http://www.w3.org/1999/xlink" x="0px" y="0px"
	 viewBox="0 0 10 16" style="enable-background:new 0 0 10 16;" xml:space="preserve">
<path style="fill-rule:evenodd;clip-rule:evenodd;" d="M0.7,13.8L6.5,8L0.7,2.2C0.5,2,0.3,1.6,0.3,1.3
	c0-0.3,0.1-0.7,0.4-0.9c0.5-0.5,1.3-0.5,1.9,0l6.7,6.7C9.5,7.3,9.7,7.7,9.7,8c0,0.3-0.1,0.7-0.4,0.9l-6.7,6.7
	c-0.5,0.5-1.3,0.5-1.9,0c-0.3-0.3-0.4-0.6-0.4-0.9C0.3,14.4,0.5,14,0.7,13.8z"/>
</svg>
