<?xml version="1.0" encoding="utf-8"?>
<!-- Generator: Adobe Illustrator 25.2.3, SVG Export Plug-In . SVG Version: 6.00 Build 0)  -->
<svg version="1.1" id="Layer_1" xmlns="http://www.w3.org/2000/svg" xmlns:xlink="http://www.w3.org/1999/xlink" x="0px" y="0px"
	 viewBox="0 0 40 40" style="enable-background:new 0 0 40 40;" xml:space="preserve">
<path style="fill:#E67300;" d="M20,0L20,0c11,0,20,9,20,20l0,0c0,11-9,20-20,20l0,0C9,40,0,31,0,20l0,0C0,9,9,0,20,0z"/>
<path style="fill:#FFFFFF;" d="M32.2,19.6c-0.1-0.2-1.2-2.2-3.2-4.8c-0.1-0.1-0.1-0.1-0.1-0.2c-0.1-1.5-0.3-3-0.6-4.4
	c0-0.1-0.1-0.3-0.2-0.4c-0.1-0.1-0.3-0.2-0.4-0.2l-2.1-0.3c0,0,0,0-0.1,0c-0.1,0-0.2,0-0.3,0.1C25.1,9.6,25,9.7,25,9.8v0.7
	c0,0,0,0,0,0c0,0,0,0,0,0c0,0,0,0,0,0c-1.3-1.2-2.8-2.3-4.3-3.2C20.4,7.1,20,7,19.7,7c-0.4,0-0.7,0.1-1.1,0.3
	C11.3,11.9,7.2,19.2,7.1,19.6C7,19.7,7,19.8,7,19.9s0,0.2,0.1,0.3c0,0.1,0.1,0.2,0.2,0.3c0.1,0.1,0.2,0.1,0.3,0.1L9.7,21
	c0.1,0,0.3,0.1,0.4,0.2c0.1,0.1,0.2,0.2,0.2,0.4c0,0.4,0.4,8.7,0.9,10.9c0,0.2,0.1,0.3,0.3,0.4c0.1,0.1,0.3,0.2,0.4,0.2h0
	c1.2,0,2.4-0.1,3.6-0.1h0.1c0.1,0,0.1,0,0.2-0.1c0,0,0.1-0.1,0.1-0.2v0c-0.1-0.7-0.2-2.4-0.2-4.1c0,0,0-0.1,0-0.1
	c0-0.1,0-0.1-0.1-0.2c0-0.1-0.1-0.1-0.2-0.1c-0.3-0.2-0.6-0.5-0.8-0.8c-0.2-0.3-0.3-0.7-0.3-1.1c-0.1-2.9-0.2-6.3,0-8.9
	c0-0.1,0-0.2,0.1-0.3c0.1-0.1,0.2-0.1,0.3-0.1c0.1,0,0.2,0,0.3,0.1c0.1,0.1,0.1,0.2,0.1,0.3v0c-0.1,1.8-0.1,3.8-0.1,5.9
	c0,0.1,0,0.1,0,0.2c0,0.1,0.1,0.1,0.1,0.2s0.1,0.1,0.2,0.1c0.1,0,0.1,0,0.2,0s0.1,0,0.2,0c0.1,0,0.1-0.1,0.2-0.1
	c0,0,0.1-0.1,0.1-0.2c0-0.1,0-0.1,0-0.2c0-2.1,0-4.2,0.1-5.9c0-0.1,0-0.1,0-0.2c0-0.1,0.1-0.1,0.1-0.1c0,0,0.1-0.1,0.1-0.1
	c0.1,0,0.1,0,0.2,0c0.1,0,0.1,0,0.2,0c0.1,0,0.1,0.1,0.1,0.1c0,0,0.1,0.1,0.1,0.1c0,0.1,0,0.1,0,0.2c0,0,0,0,0,0
	c-0.1,1.8-0.1,3.8-0.1,5.9c0,0.1,0.1,0.3,0.2,0.4c0.1,0.1,0.2,0.1,0.4,0.1c0.1,0,0.3-0.1,0.4-0.2c0.1-0.1,0.1-0.2,0.1-0.4
	c0-2.1,0-4.1,0.1-5.9c0-0.1,0-0.1,0-0.2c0-0.1,0.1-0.1,0.1-0.1c0,0,0.1-0.1,0.1-0.1c0.1,0,0.1,0,0.2,0c0.1,0,0.1,0,0.2,0
	c0.1,0,0.1,0.1,0.1,0.1c0,0,0.1,0.1,0.1,0.1c0,0.1,0,0.1,0,0.2c0,0,0,0,0,0c-0.2,2.6-0.1,5.8,0,8.7c0,0,0,0,0,0c0,0,0,0,0,0v0
	c0,0.4-0.1,0.7-0.3,1.1c-0.2,0.3-0.4,0.6-0.7,0.8c-0.1,0-0.1,0.1-0.1,0.1c0,0.1-0.1,0.1-0.1,0.2c0,0-0.1,0.4,0.1,2.6
	c0.1,0.9,0.2,1.6,0.2,1.9c0,0.1,0,0.1,0.1,0.1s0.1,0.1,0.1,0.1h0.2c0.4,0,0.8,0,1.3,0h0.2h1.6l1.2,0c0.1,0,0.1,0,0.1-0.1
	c0,0,0.1-0.1,0.1-0.1c0.3-2.5,0.3-4,0.3-4c0-0.1,0-0.1-0.1-0.2c0,0-0.1-0.1-0.2-0.1l-1.5-0.2c-0.1,0-0.2-0.1-0.3-0.1
	C21.1,28.2,21,28.1,21,28c0-0.1,0-0.1,0-0.2c0.6-8.5,3.4-11.3,3.4-11.3c0,0,0.1-0.1,0.1-0.1c0.1,0,0.1-0.1,0.2-0.1
	c0.1,0,0.1,0,0.2,0c0.1,0,0.1,0.1,0.2,0.1c0.1,0,0.1,0.1,0.1,0.2c0,0.1,0,0.1,0,0.2c0.2,2.7,0.1,7.2,0,10.7c-0.1,3-0.3,5.4-0.3,5.4
	c0,0,0,0.1,0.1,0.1c0,0,0.1,0.1,0.1,0.1c0.8,0,1.6,0,2.4,0.1h0c0.2,0,0.3-0.1,0.4-0.2c0.1-0.1,0.2-0.2,0.3-0.4
	c0.5-2.2,0.9-10.5,0.9-10.9c0-0.1,0.1-0.3,0.2-0.4c0.1-0.1,0.2-0.2,0.4-0.2l2.1-0.4c0.1,0,0.2-0.1,0.3-0.1c0.1-0.1,0.1-0.2,0.2-0.3
	c0-0.1,0.1-0.2,0.1-0.3C32.3,19.8,32.3,19.7,32.2,19.6L32.2,19.6z"/>
</svg>
