<?xml version="1.0" encoding="utf-8"?>
<!-- Generator: Adobe Illustrator 25.2.3, SVG Export Plug-In . SVG Version: 6.00 Build 0)  -->
<svg version="1.1" id="Layer_1" xmlns="http://www.w3.org/2000/svg" xmlns:xlink="http://www.w3.org/1999/xlink" x="0px" y="0px"
	 viewBox="0 0 238 40" style="enable-background:new 0 0 238 40;" xml:space="preserve">
<path style="fill:#FFFFFF;" d="M132,18.1v-1.7c0-0.1-0.1-0.2-0.1-0.3c-0.1-0.1-0.2-0.1-0.3-0.1h-9.2c-0.1,0-0.2,0-0.3,0.1
	c-0.1,0.1-0.1,0.2-0.1,0.3v1.7c0,0.1,0,0.2,0.1,0.3c0.1,0.1,0.2,0.1,0.3,0.1h3c0.1,0,0.1,0,0.1,0.1c0,0,0.1,0.1,0.1,0.1v9.8
	c0,0.1,0,0.2,0.1,0.3c0.1,0.1,0.2,0.1,0.3,0.1h2c0.1,0,0.2,0,0.3-0.1c0.1-0.1,0.1-0.2,0.1-0.3v-9.9c0,0,0-0.1,0.1-0.1
	c0,0,0.1,0,0.1,0h3c0.1,0,0.2,0,0.3-0.1C131.9,18.3,132,18.2,132,18.1"/>
<path style="fill:#FFFFFF;" d="M138.1,20.2c-0.3-0.4-0.8-0.7-1.3-0.9c-0.7-0.2-1.4-0.3-2.1-0.3c-0.8,0-1.5,0.1-2.2,0.4
	c-0.6,0.2-1.1,0.5-1.6,0.8c-0.1,0.1-0.1,0.2-0.1,0.3c0,0.1,0,0.2,0.1,0.3l0.9,0.9c0,0,0.1,0.1,0.1,0.1c0.1,0,0.1,0,0.2,0
	s0.1,0,0.2,0c0.1,0,0.1-0.1,0.1-0.1c0.2-0.2,0.5-0.4,0.7-0.5c0.4-0.2,0.9-0.3,1.3-0.3c0.5,0,0.9,0.1,1.3,0.4
	c0.3,0.3,0.5,0.8,0.5,1.5c0,0,0,0.1-0.1,0.1c0,0-0.1,0.1-0.1,0.1c-0.3,0-0.7,0-1.1,0c-0.5,0-0.9,0-1.4,0.1c-0.5,0.1-0.9,0.2-1.4,0.3
	c-0.4,0.1-0.8,0.3-1.2,0.5c-0.3,0.2-0.6,0.5-0.8,0.9c-0.2,0.4-0.3,0.9-0.3,1.3c0,0.4,0.1,0.8,0.3,1.2c0.2,0.3,0.4,0.6,0.7,0.9
	c0.3,0.2,0.7,0.4,1.1,0.5c0.4,0.1,0.8,0.2,1.3,0.2c0.6,0,1.2-0.1,1.7-0.3c0.4-0.2,0.8-0.4,1.1-0.8h0c0,0,0.1,0,0.1,0
	c0,0,0.1,0,0.1,0c0,0,0,0.1,0,0.1v0.3c0,0.1,0,0.2,0.1,0.3c0.1,0.1,0.2,0.1,0.3,0.1h1.8c0.1,0,0.2,0,0.3-0.1
	c0.1-0.1,0.1-0.2,0.1-0.3v-4.2c0-0.8-0.1-1.7-0.2-2.5C138.7,21.2,138.5,20.7,138.1,20.2L138.1,20.2z M136.4,25.4
	c0,0.3-0.1,0.5-0.2,0.7c-0.1,0.2-0.3,0.4-0.5,0.5c-0.2,0.1-0.5,0.2-0.7,0.3c-0.3,0.1-0.5,0.1-0.8,0.1c-0.3,0-0.6-0.1-0.9-0.2
	c-0.1-0.1-0.3-0.2-0.3-0.3c-0.1-0.1-0.1-0.3-0.1-0.4c0-0.1,0-0.3,0.1-0.4c0.1-0.1,0.1-0.2,0.2-0.3c0.2-0.2,0.5-0.3,0.8-0.4
	c0.3-0.1,0.6-0.1,0.9-0.2c0.3,0,0.6,0,0.8,0h0.5c0.1,0,0.1,0,0.1,0.1c0,0,0.1,0.1,0.1,0.1L136.4,25.4z"/>
<path style="fill:#FFFFFF;" d="M165.1,20.2c-0.3-0.4-0.8-0.7-1.3-0.9c-0.7-0.2-1.4-0.3-2.1-0.3c-0.8,0-1.5,0.1-2.2,0.4
	c-0.6,0.2-1.1,0.5-1.6,0.8c-0.1,0.1-0.1,0.2-0.1,0.3c0,0.1,0,0.2,0.1,0.3l0.9,0.9c0.1,0.1,0.2,0.1,0.3,0.1c0.1,0,0.2,0,0.3-0.1
	c0.2-0.2,0.5-0.4,0.7-0.5c0.4-0.2,0.9-0.3,1.3-0.3c0.5,0,0.9,0.1,1.3,0.4c0.3,0.3,0.5,0.8,0.5,1.5c0,0,0,0.1-0.1,0.1
	c0,0-0.1,0.1-0.1,0.1c-0.3,0-0.7,0-1.1,0c-0.5,0-0.9,0-1.4,0.1c-0.5,0.1-0.9,0.2-1.4,0.3c-0.4,0.1-0.8,0.3-1.2,0.5
	c-0.3,0.2-0.6,0.5-0.8,0.9c-0.2,0.4-0.3,0.9-0.3,1.3c0,0.4,0.1,0.8,0.3,1.2c0.2,0.3,0.4,0.6,0.7,0.9c0.3,0.2,0.7,0.4,1.1,0.5
	c1,0.3,2,0.2,2.9-0.1c0.4-0.2,0.8-0.4,1.1-0.8h0c0,0,0.1,0,0.1,0c0,0,0.1,0,0.1,0c0,0,0,0.1,0,0.1v0.3c0,0.1,0,0.2,0.1,0.3
	c0.1,0.1,0.2,0.1,0.3,0.1h1.8c0.1,0,0.2,0,0.3-0.1c0.1-0.1,0.1-0.2,0.1-0.3v-4.2c0-0.8-0.1-1.7-0.2-2.5
	C165.7,21.2,165.5,20.7,165.1,20.2L165.1,20.2z M163.3,25.4c0,0.3-0.1,0.5-0.2,0.7c-0.1,0.2-0.3,0.4-0.5,0.5
	c-0.2,0.1-0.5,0.2-0.7,0.3c-0.3,0.1-0.5,0.1-0.8,0.1c-0.3,0-0.6-0.1-0.9-0.2c-0.1-0.1-0.3-0.2-0.3-0.3c-0.1-0.1-0.1-0.3-0.1-0.4
	c0-0.1,0-0.3,0.1-0.4c0.1-0.1,0.1-0.2,0.2-0.3c0.2-0.2,0.5-0.3,0.8-0.4c0.3-0.1,0.6-0.1,0.9-0.2c0.3,0,0.6,0,0.8,0h0.5
	c0.1,0,0.1,0,0.1,0.1c0,0,0.1,0.1,0.1,0.1L163.3,25.4z"/>
<path style="fill:#FFFFFF;" d="M189.1,20.2c-0.3-0.4-0.8-0.7-1.3-0.9c-0.7-0.2-1.4-0.3-2.1-0.3c-0.8,0-1.5,0.1-2.2,0.4
	c-0.6,0.2-1.1,0.5-1.6,0.8c-0.1,0.1-0.1,0.2-0.1,0.3c0,0.1,0,0.2,0.1,0.3l0.9,0.9c0.1,0.1,0.2,0.1,0.3,0.1s0.2,0,0.3-0.1
	c0.2-0.2,0.5-0.4,0.7-0.5c0.4-0.2,0.8-0.3,1.3-0.3c0.5,0,0.9,0.1,1.3,0.4c0.3,0.3,0.5,0.8,0.5,1.5c0,0.1,0,0.1-0.1,0.1
	c0,0-0.1,0.1-0.1,0.1c-0.3,0-0.7,0-1.1,0c-0.5,0-0.9,0-1.4,0.1c-0.5,0.1-0.9,0.2-1.4,0.3c-0.4,0.1-0.8,0.3-1.2,0.5
	c-0.3,0.2-0.6,0.5-0.8,0.9c-0.2,0.4-0.3,0.9-0.3,1.3c0,0.4,0.1,0.8,0.3,1.2c0.2,0.3,0.4,0.6,0.7,0.9c0.3,0.2,0.7,0.4,1.1,0.5
	c1,0.3,2,0.2,2.9-0.1c0.4-0.2,0.8-0.4,1.1-0.8h0c0,0,0.1,0,0.1,0c0,0,0.1,0,0.1,0c0,0,0,0,0,0c0,0,0,0,0,0.1v0.3
	c0,0.1,0.1,0.2,0.1,0.3c0.1,0.1,0.2,0.1,0.3,0.1h1.8c0.1,0,0.2,0,0.3-0.1c0.1-0.1,0.1-0.2,0.1-0.3v-4.2c0-0.8-0.1-1.7-0.2-2.5
	C189.7,21.2,189.5,20.7,189.1,20.2L189.1,20.2z M187.3,25.4c0,0.3-0.1,0.5-0.2,0.7c-0.1,0.2-0.3,0.4-0.5,0.5
	c-0.2,0.1-0.5,0.2-0.7,0.3c-0.3,0.1-0.5,0.1-0.8,0.1c-0.3,0-0.6-0.1-0.9-0.2c-0.1-0.1-0.3-0.2-0.3-0.3c-0.1-0.1-0.1-0.3-0.1-0.4
	c0-0.1,0-0.3,0.1-0.4c0.1-0.1,0.1-0.2,0.2-0.3c0.2-0.2,0.5-0.3,0.8-0.4c0.3-0.1,0.6-0.1,0.9-0.2c0.3,0,0.6,0,0.8,0h0.5
	c0.1,0,0.1,0,0.1,0.1c0,0,0.1,0.1,0.1,0.1L187.3,25.4z"/>
<path style="fill:#FFFFFF;" d="M155.9,20.3c-0.4-0.4-0.8-0.7-1.3-1c-0.5-0.2-1.1-0.3-1.7-0.3c-0.6,0-1.3,0.1-1.9,0.3
	c-0.6,0.2-1.1,0.5-1.6,1c-0.4,0.4-0.8,0.9-1,1.5c-0.5,1.4-0.5,3,0,4.4c0.2,0.6,0.6,1.1,1,1.5c0.4,0.4,1,0.8,1.6,1
	c0.6,0.2,1.3,0.3,1.9,0.3c0.7,0,1.4-0.2,2.1-0.5c0.5-0.2,1-0.6,1.3-1c0.1-0.1,0.1-0.2,0.1-0.3c0-0.1,0-0.2-0.1-0.3l-1.2-0.9L155,26
	c-0.1,0-0.2-0.1-0.3-0.1c-0.1,0-0.2,0.1-0.2,0.1c-0.2,0.2-0.4,0.4-0.6,0.5c-0.3,0.2-0.7,0.3-1.1,0.3c-0.5,0-1-0.2-1.3-0.5
	c-0.4-0.4-0.7-1-0.7-1.6c0,0,0-0.1,0-0.1c0,0,0.1-0.1,0.1-0.1h5.7c0.1,0,0.2-0.1,0.3-0.1c0.1-0.1,0.1-0.2,0.1-0.3v-0.5
	c0-0.7-0.1-1.3-0.3-1.9C156.5,21.2,156.3,20.7,155.9,20.3L155.9,20.3z M154.1,22.7h-3.1c-0.1,0-0.1,0-0.1-0.1c0,0-0.1-0.1-0.1-0.1
	c0-0.2,0.1-0.3,0.1-0.4c0.1-0.2,0.2-0.4,0.4-0.5c0.2-0.2,0.4-0.3,0.6-0.4c0.3-0.1,0.5-0.2,0.8-0.1c0.2,0,0.4,0,0.7,0.1
	c0.2,0.1,0.4,0.2,0.6,0.4c0.3,0.3,0.4,0.6,0.4,1c0,0.1,0,0.1-0.1,0.1C154.2,22.7,154.1,22.7,154.1,22.7"/>
<path style="fill:#FFFFFF;" d="M145.8,24.4L145.8,24.4c-0.1-0.2-0.1-0.2-0.1-0.3c0-0.1,0-0.2,0.1-0.2l3.2-4c0,0,0-0.1,0-0.1
	c0,0,0-0.1,0-0.1c0,0,0-0.1-0.1-0.1c0,0-0.1,0-0.1,0h-2.5c-0.1,0-0.3,0-0.4,0.1c-0.1,0.1-0.2,0.1-0.3,0.2l-0.1,0.2l-2.5,3.2l0,0l0,0
	h0c0,0-0.1,0-0.1,0c0,0-0.1,0-0.1,0c0,0,0,0,0-0.1v-7.7c0-0.1,0-0.2-0.1-0.3c-0.1-0.1-0.2-0.1-0.3-0.1h-2c-0.1,0-0.2,0.1-0.3,0.1
	c-0.1,0.1-0.1,0.2-0.1,0.3v13.2c0,0.1,0,0.2,0.1,0.3s0.2,0.1,0.3,0.1h1.9c0.1,0,0.2,0,0.3-0.1c0.1-0.1,0.1-0.2,0.1-0.3v-3.7
	c0,0,0-0.1,0-0.1c0,0,0.1,0,0.1,0c0,0,0.1,0,0.1,0h0c0,0,0,0,0,0v0l0,0.1l2.4,3.6l0.1,0.2c0.1,0.1,0.2,0.2,0.3,0.2
	c0.1,0.1,0.2,0.1,0.4,0.1h2.7c0,0,0.1,0,0.1,0c0,0,0.1-0.1,0.1-0.1s0-0.1,0-0.1L145.8,24.4z"/>
<path style="fill:#FFFFFF;" d="M180.9,19.6c0-0.1,0-0.2,0-0.3c0,0,0,0,0,0c0-0.1-0.1-0.2-0.1-0.2c-0.1-0.1-0.2-0.1-0.3-0.1H179
	c-0.2,0-0.4,0.1-0.5,0.2s-0.3,0.3-0.3,0.5l-0.1,0.2l-1.3,4.6c0,0-0.1,0.1-0.1,0.1c0,0-0.1,0-0.1,0s0,0-0.1-0.1l0-0.1l-1.3-4.7l0-0.1
	c-0.1-0.2-0.2-0.3-0.3-0.4c-0.1-0.1-0.3-0.2-0.5-0.2h-1.7c-0.2,0-0.4,0.1-0.5,0.2c-0.1,0.1-0.3,0.3-0.3,0.4v0l0,0.1l-1.2,4.6
	c0,0,0,0,0,0c0,0,0,0-0.1,0c0,0,0,0-0.1,0c0,0,0,0-0.1,0c0,0,0,0-0.1-0.1l-1.4-4.6l-0.1-0.2c0,0,0,0,0,0c-0.1-0.2-0.2-0.3-0.3-0.4
	c-0.1-0.1-0.3-0.1-0.5-0.1h-1.7c-0.1,0-0.2,0-0.2,0.1c-0.1,0.1-0.1,0.1-0.1,0.2c0,0,0,0,0,0c0,0.1,0,0.2,0,0.3l2.8,7.8
	c0,0,0,0.1,0,0.1c0.1,0.1,0.2,0.2,0.3,0.3c0.1,0.1,0.3,0.1,0.4,0.1h1.7c0.2,0,0.3-0.1,0.5-0.2c0.1-0.1,0.2-0.2,0.3-0.4l0.1-0.2
	l1.3-4.5c0,0,0,0,0.1,0c0,0,0,0,0.1,0c0,0,0.1,0,0.1,0c0,0,0,0,0.1,0l1.5,4.6c0,0.1,0.1,0.2,0.1,0.3c0.1,0.1,0.2,0.2,0.3,0.3
	c0.1,0.1,0.3,0.1,0.4,0.1h1.6c0.1,0,0.3-0.1,0.4-0.1c0.1-0.1,0.2-0.2,0.3-0.3c0,0,0.1-0.2,0.1-0.3L180.9,19.6
	C181,19.7,181,19.7,180.9,19.6"/>
<path style="fill:#FFFFFF;" d="M200,19.3C200,19.3,200,19.3,200,19.3c-0.1-0.1-0.1-0.2-0.2-0.2c-0.1,0-0.1-0.1-0.2-0.1h-1.7
	c-0.2,0-0.3,0.1-0.4,0.1c-0.1,0.1-0.2,0.2-0.3,0.4c0,0,0,0.1,0,0.1l0,0c0,0,0,0,0,0.1l-0.1,0.2l-1.6,5l0,0.1c0,0,0,0.1-0.1,0.1
	c0,0-0.1,0-0.1,0c0,0-0.1,0-0.1,0c0,0-0.1-0.1-0.1-0.1l-1.9-5.1l0-0.1l-0.1-0.3c-0.1-0.1-0.2-0.2-0.3-0.3c-0.1-0.1-0.3-0.1-0.4-0.1
	h-1.9c-0.1,0-0.1,0-0.2,0.1c-0.1,0-0.1,0.1-0.1,0.2c0,0,0,0,0,0.1c0,0.1,0,0.1,0,0.2l3.7,8.8c0.1,0.2,0,0.4,0,0.6v0l-0.1,0.2
	c-0.1,0.2-0.2,0.5-0.3,0.6c-0.1,0.2-0.2,0.3-0.3,0.5c-0.1,0.1-0.3,0.2-0.5,0.3c-0.3,0.1-0.5,0.1-0.8,0.1h-1.2c-0.1,0-0.2,0-0.3,0.1
	c-0.1,0.1-0.1,0.2-0.1,0.3v1.5c0,0.1,0,0.2,0.1,0.3c0.1,0.1,0.2,0.1,0.3,0.1h1.6c0.6,0,1.1,0,1.6-0.2c0.4-0.1,0.7-0.3,1-0.6
	c0.3-0.3,0.5-0.6,0.7-0.9c0.2-0.4,0.4-0.8,0.5-1.3l4-10.5C200,19.5,200,19.4,200,19.3"/>
<path style="fill:#FFFFFF;" d="M199,27c-0.1,0-0.3,0-0.4,0.1c-0.1,0.1-0.2,0.1-0.3,0.2c-0.2,0.2-0.3,0.4-0.3,0.7
	c0,0.3,0.1,0.5,0.3,0.7c0.2,0.2,0.4,0.3,0.7,0.3c0.3,0,0.5-0.1,0.7-0.3l0,0c0.2-0.2,0.3-0.4,0.3-0.7c0-0.3-0.1-0.5-0.3-0.7
	c-0.1-0.1-0.2-0.2-0.3-0.2C199.3,27,199.1,27,199,27"/>
<path style="fill:#FFFFFF;" d="M216.7,20.3c-0.4-0.4-0.9-0.7-1.4-1c-1.2-0.5-2.4-0.5-3.6,0c-0.5,0.2-1,0.5-1.4,1
	c-0.4,0.4-0.7,0.9-0.9,1.4c-0.2,0.6-0.3,1.7-0.3,2.4c0,0.7,0.1,1.5,0.3,2.1c0.2,0.6,0.5,1,0.9,1.5s0.9,0.7,1.4,0.9
	c1.2,0.5,2.4,0.5,3.6,0c0.5-0.2,1-0.5,1.4-1c0.4-0.4,0.7-0.9,0.9-1.4c0.2-0.7,0.3-1.4,0.3-2.1c0-0.7-0.1-1.8-0.3-2.4
	C217.4,21.2,217.1,20.7,216.7,20.3L216.7,20.3z M216.3,25.6c-0.1,0.4-0.3,0.7-0.6,1c-0.3,0.3-0.6,0.5-0.9,0.7
	c-0.8,0.3-1.7,0.3-2.5,0c-0.4-0.2-0.7-0.4-0.9-0.7c-0.3-0.3-0.5-0.7-0.6-1c-0.1-0.5-0.2-1-0.2-1.5c0-0.6,0.1-1.2,0.2-1.8
	c0.1-0.4,0.3-0.7,0.6-1c0.3-0.3,0.6-0.5,0.9-0.7c0.8-0.3,1.7-0.3,2.5,0c0.4,0.2,0.7,0.4,0.9,0.7c0.3,0.3,0.5,0.7,0.6,1
	c0.1,0.6,0.2,1.2,0.2,1.8C216.5,24.6,216.4,25.1,216.3,25.6"/>
<path style="fill:#FFFFFF;" d="M203.4,21.3c0.3-0.3,0.6-0.5,1-0.7c0.4-0.2,0.9-0.3,1.3-0.2c0.4,0,0.9,0.1,1.2,0.2
	c0.3,0.1,0.6,0.3,0.8,0.5c0.1,0.1,0.2,0.1,0.3,0.1c0.1,0,0.2,0,0.3-0.1l0.6-0.5c0.1-0.1,0.1-0.2,0.1-0.3c0-0.1,0-0.2-0.1-0.3
	c-0.4-0.3-0.8-0.6-1.3-0.8c-0.6-0.2-1.3-0.3-1.9-0.3c-0.7,0-1.3,0.1-1.9,0.3c-0.6,0.2-1.1,0.5-1.5,1c-0.4,0.4-0.7,0.9-1,1.5
	c-0.5,1.5-0.5,3,0,4.4c0.2,0.5,0.5,1,1,1.5c0.4,0.4,0.9,0.8,1.5,1c1.2,0.5,2.6,0.5,3.8,0c0.5-0.2,0.9-0.4,1.3-0.8
	c0.1-0.1,0.1-0.2,0.1-0.3s0-0.2-0.1-0.3l-0.5-0.4c-0.1-0.1-0.2-0.1-0.3-0.1s-0.2,0-0.3,0.1c-0.3,0.3-0.6,0.5-0.9,0.6
	c-0.4,0.1-0.7,0.2-1.1,0.2c-0.4,0-0.9-0.1-1.3-0.3c-0.4-0.2-0.7-0.4-1-0.7c-0.3-0.3-0.5-0.7-0.6-1c-0.2-0.5-0.2-1.1-0.2-1.6
	c0-0.6,0.1-1.1,0.2-1.6C203,22,203.2,21.6,203.4,21.3"/>
<path style="fill:#FFFFFF;" d="M231.8,21.2c-0.1-0.4-0.3-0.8-0.6-1.2c-0.3-0.3-0.6-0.6-1-0.7c-0.5-0.2-1-0.3-1.6-0.3
	c-0.6,0-1.1,0.1-1.6,0.5c-0.4,0.3-0.7,0.6-0.9,1l0,0.1l0,0c0,0,0,0-0.1,0c0,0,0,0-0.1,0c0,0-0.1,0-0.1,0c0,0,0,0-0.1-0.1
	c0,0,0,0,0-0.1c0-0.1-0.1-0.1-0.1-0.2c-0.1-0.2-0.3-0.4-0.5-0.6c-0.2-0.2-0.5-0.3-0.8-0.4c-0.7-0.2-1.5-0.2-2.2,0
	c-0.3,0.1-0.6,0.2-0.8,0.4c-0.2,0.1-0.5,0.3-0.6,0.5c-0.1,0.1-0.1,0.1-0.2,0.2l0,0c0,0,0,0,0,0c0,0,0,0-0.1,0c0,0-0.1,0-0.1,0
	c0,0,0,0-0.1,0c0,0,0,0,0-0.1v-0.6c0-0.1,0-0.2-0.1-0.3c-0.1-0.1-0.2-0.1-0.3-0.1h-0.5c-0.1,0-0.2,0.1-0.3,0.1
	c-0.1,0.1-0.1,0.2-0.1,0.3v8.9c0,0.1,0,0.2,0.1,0.3c0.1,0.1,0.2,0.1,0.3,0.1h0.6c0.1,0,0.2-0.1,0.3-0.1c0.1-0.1,0.1-0.2,0.1-0.3
	v-4.7c0-0.5,0-0.9,0.2-1.4c0.1-0.4,0.3-0.8,0.5-1.1c0.2-0.3,0.5-0.6,0.8-0.7c0.4-0.2,0.8-0.3,1.2-0.2c0.6,0,1,0.2,1.3,0.6
	c0.3,0.4,0.4,1.1,0.4,2.1v5.4c0,0.1,0,0.2,0.1,0.3c0.1,0.1,0.2,0.1,0.3,0.1h0.6c0.1,0,0.2-0.1,0.3-0.1c0.1-0.1,0.1-0.2,0.1-0.3V23
	c0-0.4,0.1-0.7,0.2-1.1c0.1-0.3,0.3-0.6,0.5-0.8c0.2-0.2,0.4-0.4,0.7-0.5c0.3-0.1,0.6-0.2,0.9-0.2c0.4,0,0.7,0.1,1,0.2
	c0.3,0.1,0.5,0.3,0.6,0.6c0.2,0.2,0.3,0.5,0.3,0.8c0.1,0.3,0.1,0.6,0.1,0.9v5.7c0,0.1,0,0.2,0.1,0.3c0.1,0.1,0.2,0.1,0.3,0.1h0.6
	c0.1,0,0.2-0.1,0.3-0.1c0.1-0.1,0.1-0.2,0.1-0.3v-5.8C232,22.2,232,21.7,231.8,21.2"/>
<path style="fill:#FFFFFF;" d="M43.7,16h-3.5c-1.1,0-1.1,0-1.4,1.3c-0.2,1.3-0.2,1.4,0.8,1.4h2.1l-1.2,6.7c-0.3,1.5-0.9,2.5-2.9,3.1
	C37.1,28.6,37,28.8,37,29c0,0.3,0.1,0.5,0.3,1.1c0.3,0.8,0.5,0.9,0.8,0.9c0.3,0,0.8-0.1,1-0.2c2.8-0.9,4-3.1,4.5-5.7l1.3-7.5
	C45.1,16,45.1,16,43.7,16z"/>
<path style="fill:#FFFFFF;" d="M55.5,16c-1.5,0-1.5,0-1.7,1.2l-1.1,6.2c-0.3,1.8-0.8,2.8-2.6,2.8c-1.8,0-2.4-1-2.1-2.7l1-5.9
	c0.3-1.7,0.2-1.7-1.3-1.7c-1.5,0-1.5,0-1.7,1.1l-1.1,6.2c-0.6,3.5,1.6,5.7,4.8,5.7c3.6,0,5.4-1.6,5.9-5.3l1.1-6.1
	C57.1,16,57,16,55.5,16"/>
<path style="fill:#FFFFFF;" d="M62.1,26.2c1.1,0,1.7-0.6,1.7-1.1c0-0.7-0.8-0.9-1.9-1.2c-2.1-0.7-4-1.4-4-3.7c0-2.7,2.2-4.2,4.9-4.2
	c1.2,0,2.5,0,3.3,0.1c0.7,0.1,0.9,0.3,0.7,1.5c-0.2,1.2-0.5,1.3-1.2,1.2c-0.8,0-1.8-0.1-3-0.1c-1.4,0-1.8,0.5-1.8,1
	c0,0.6,0.6,0.9,1.9,1.3c2.4,0.7,4,1.7,4,3.8c0,2.5-1.8,4-4.7,4.1c-1.4,0.1-2.8,0-4.2-0.2c-0.9-0.1-1-0.1-0.7-1.5
	c0.2-1.2,0.2-1.3,1.1-1.2C59.9,26.2,61,26.2,62.1,26.2"/>
<path style="fill:#FFFFFF;" d="M78,16h-8.4c-1.2,0-1.2,0-1.4,1.4c-0.2,1.4-0.2,1.4,0.8,1.4h2.7l-1.5,8.6C69.9,29,69.9,29,71.5,29
	c1.4,0,1.5,0,1.7-1.2l1.6-9h2.6c1.2,0,1.2,0,1.4-1.4C79.1,16,79.1,16,78,16z"/>
<path style="fill:#FFFFFF;" d="M92.4,18.8c1.2,0,1.2,0,1.4-1.4C94.1,16,94.1,16,93,16h-5.9c-2.1,0-2.1,0-2.4,2.1l-1.5,8.7
	C82.8,29,82.8,29,85,29h5.8c1.2,0,1.2,0,1.4-1.3c0.2-1.4,0.2-1.4-0.8-1.4h-5l0.4-2.5h4.2c1.1,0,1.1,0,1.3-1.3
	c0.2-1.3,0.2-1.3-1.3-1.3h-3.7l0.4-2.3L92.4,18.8z"/>
<path style="fill:#FFFFFF;" d="M98.8,23.4l2-4.1c0.2-0.3,0.2-0.3,0.4-0.3c0.2,0,0.2,0,0.3,0.4l0.6,4.1H98.8z M104.1,17.6
	c-0.3-1.6-0.3-1.6-2.7-1.6c-2.3,0-2.2,0-2.9,1.3l-5.1,10.1c-0.8,1.4-0.6,1.6,1.3,1.6c1.5,0,1.5,0,2.1-1.3l0.8-1.7h4.9l0.3,1.7
	c0.2,1.3,0.2,1.3,1.7,1.3c1.7,0,1.8-0.1,1.5-1.7L104.1,17.6z"/>
<path style="fill:#FFFFFF;" d="M115,16h-8.5c-1.2,0-1.2,0-1.4,1.4c-0.2,1.4-0.2,1.4,0.8,1.4h2.7l-1.5,8.6c-0.3,1.7-0.2,1.7,1.3,1.7
	c1.4,0,1.5,0,1.7-1.2l1.6-9h2.6c1.2,0,1.2,0,1.4-1.4C116.1,16,116.1,16,115,16"/>
<path style="fill:#FFFFFF;" d="M30.9,18.6c-0.1-0.2-1.2-2.2-3.2-4.8c-0.1-0.1-0.1-0.1-0.1-0.2c-0.1-1.5-0.3-3-0.6-4.4
	c0-0.1-0.1-0.3-0.2-0.4c-0.1-0.1-0.2-0.2-0.4-0.2l-2.1-0.3c0,0,0,0-0.1,0c-0.1,0-0.2,0-0.3,0.1c-0.1,0.1-0.1,0.2-0.1,0.3v0.7
	c0,0,0,0,0,0c0,0,0,0,0,0c0,0,0,0,0,0c-1.3-1.2-2.7-2.3-4.2-3.2c-0.3-0.2-0.7-0.3-1-0.3c-0.4,0-0.7,0.1-1,0.3
	C10.2,10.8,6.2,18.2,6.1,18.6C6,18.7,6,18.8,6,18.9c0,0.1,0,0.2,0.1,0.3c0,0.1,0.1,0.2,0.2,0.3c0.1,0.1,0.2,0.1,0.3,0.1L8.6,20
	c0.1,0,0.3,0.1,0.4,0.2c0.1,0.1,0.2,0.2,0.2,0.4c0,0.4,0.4,8.7,0.9,10.8c0,0.2,0.1,0.3,0.3,0.4c0.1,0.1,0.3,0.2,0.4,0.2h0
	c1.2,0,2.3-0.1,3.5-0.1h0.1c0.1,0,0.1,0,0.2-0.1c0,0,0.1-0.1,0.1-0.2v0c0-0.7-0.2-2.4-0.2-4.1c0,0,0-0.1,0-0.1c0-0.1,0-0.1-0.1-0.2
	c0-0.1-0.1-0.1-0.2-0.1c-0.3-0.2-0.6-0.5-0.8-0.8c-0.2-0.3-0.3-0.7-0.3-1.1c-0.1-2.9-0.2-6.3,0-8.9c0-0.1,0-0.2,0.1-0.3
	c0.1-0.1,0.2-0.1,0.3-0.1c0.1,0,0.2,0,0.3,0.1c0.1,0.1,0.1,0.2,0.1,0.3v0c-0.1,1.8-0.1,3.8-0.1,5.9c0,0.1,0,0.1,0,0.2
	c0,0.1,0.1,0.1,0.1,0.2s0.1,0.1,0.2,0.1c0.1,0,0.1,0,0.2,0c0.1,0,0.1,0,0.2,0c0.1,0,0.1-0.1,0.2-0.1c0,0,0.1-0.1,0.1-0.2
	c0-0.1,0-0.1,0-0.2c0-2.1,0-4.2,0.1-5.9c0-0.1,0-0.1,0-0.2C15,16.1,15,16,15,16c0,0,0.1-0.1,0.1-0.1c0.1,0,0.1,0,0.2,0
	c0.1,0,0.1,0,0.2,0s0.1,0.1,0.1,0.1c0,0,0.1,0.1,0.1,0.1c0,0.1,0,0.1,0,0.2c0,0,0,0,0,0c-0.1,1.7-0.1,3.8-0.1,5.9
	c0,0.1,0.1,0.3,0.2,0.4c0.1,0.1,0.2,0.1,0.4,0.1c0.1,0,0.3-0.1,0.4-0.2c0.1-0.1,0.1-0.2,0.1-0.4c0-2.1,0-4.1,0.1-5.9
	c0-0.1,0-0.1,0-0.2s0.1-0.1,0.1-0.1c0,0,0.1-0.1,0.1-0.1c0.1,0,0.1,0,0.2,0c0.1,0,0.1,0,0.2,0c0.1,0,0.1,0.1,0.1,0.1
	c0,0,0.1,0.1,0.1,0.1c0,0.1,0,0.1,0,0.2c0,0,0,0,0,0c-0.1,2.6-0.1,5.8,0,8.7c0,0,0,0,0,0c0,0,0,0,0,0v0c0,0.4-0.1,0.7-0.3,1.1
	c-0.2,0.3-0.4,0.6-0.7,0.8c-0.1,0-0.1,0.1-0.1,0.1s-0.1,0.1-0.1,0.2c0,0-0.1,0.4,0.1,2.6c0.1,0.9,0.2,1.6,0.2,1.9
	c0,0.1,0,0.1,0.1,0.1c0,0,0.1,0.1,0.1,0.1h0.2c0.4,0,0.8,0,1.2,0h0.2h1.6l1.2,0c0.1,0,0.1,0,0.1-0.1c0,0,0.1-0.1,0.1-0.1
	c0.3-2.5,0.3-4,0.3-4c0-0.1,0-0.1-0.1-0.2c0,0-0.1-0.1-0.2-0.1l-1.4-0.2c-0.1,0-0.2-0.1-0.3-0.1c-0.1-0.1-0.1-0.1-0.2-0.2
	c0-0.1,0-0.1,0-0.2c0.6-8.5,3.3-11.3,3.3-11.3c0,0,0.1-0.1,0.1-0.1c0.1,0,0.1-0.1,0.2-0.1c0.1,0,0.1,0,0.2,0c0.1,0,0.1,0.1,0.2,0.1
	c0,0,0.1,0.1,0.1,0.2c0,0.1,0,0.1,0,0.2c0.2,2.7,0.1,7.2,0,10.7c-0.1,3-0.3,5.3-0.3,5.3c0,0,0,0.1,0.1,0.1s0.1,0.1,0.1,0.1
	c0.8,0,1.6,0,2.4,0.1h0c0.2,0,0.3-0.1,0.4-0.2c0.1-0.1,0.2-0.2,0.3-0.4c0.5-2.2,0.9-10.5,0.9-10.8c0-0.1,0.1-0.3,0.2-0.4
	c0.1-0.1,0.2-0.2,0.4-0.2l2.1-0.4c0.1,0,0.2-0.1,0.3-0.1c0.1-0.1,0.1-0.2,0.2-0.3c0-0.1,0.1-0.2,0.1-0.3C31,18.8,31,18.7,30.9,18.6
	L30.9,18.6z"/>
</svg>
