<?xml version="1.0" encoding="utf-8"?>
<!-- Generator: Adobe Illustrator 25.2.3, SVG Export Plug-In . SVG Version: 6.00 Build 0)  -->
<svg version="1.1" id="Layer_1" xmlns="http://www.w3.org/2000/svg" xmlns:xlink="http://www.w3.org/1999/xlink" x="0px" y="0px"
	 viewBox="0 0 250 285" style="enable-background:new 0 0 250 285;" xml:space="preserve">
<path style="fill:none;stroke:#FFC300;stroke-width:0.675;stroke-linecap:round;stroke-linejoin:round;" d="M20.9,35.6
	c0,0,0.7,6.6,1,8.7c0.1,0.8,0,0.9,0,3.9s2.4,5.2,2.4,7.5s-0.7,4.1-0.6,5"/>
<linearGradient id="SVGID_1_" gradientUnits="userSpaceOnUse" x1="32.8306" y1="274.5551" x2="11.0648" y2="252.7892" gradientTransform="matrix(1 0 0 -1 0 285.8898)">
	<stop  offset="0" style="stop-color:#4F00BC"/>
	<stop  offset="1" style="stop-color:#29ABE2"/>
</linearGradient>
<path style="fill:url(#SVGID_1_);" d="M11,11.2c6-6,15.8-6,21.8,0l0,0c6.1,6.1,6.1,15.9,0,22L22,44.1L11,33C5,27,5,17.3,11,11.2
	L11,11.2z"/>
<linearGradient id="SVGID_2_" gradientUnits="userSpaceOnUse" x1="23.884" y1="250.2079" x2="21.5681" y2="239.4598" gradientTransform="matrix(1 0 0 -1 0 285.8898)">
	<stop  offset="0" style="stop-color:#4F00BC"/>
	<stop  offset="1" style="stop-color:#29ABE2"/>
</linearGradient>
<path style="fill-rule:evenodd;clip-rule:evenodd;fill:url(#SVGID_2_);" d="M25.1,45.6c0.7-0.7,0.7-1.7,0-2.4
	c-0.7-0.7-1.7-0.7-2.4,0L22,43.9l-0.7-0.7c-0.7-0.7-1.8-0.7-2.4,0c-0.7,0.7-0.7,1.7,0,2.4c0.7,0.7,1.7,0.7,2.4,0L22,45l0.7,0.7
	C23.3,46.3,24.4,46.3,25.1,45.6z"/>
<path style="fill:none;stroke:#5374FC;stroke-width:2;stroke-linecap:round;stroke-linejoin:round;" d="M96.3,126.8
	c0,0,2.1,19.6,2.9,25.7c0.3,2.3,0,2.7,0,11.5c0,8.8,7,15.3,7,22.3c0,7-2,12.2-1.8,14.9"/>
<linearGradient id="SVGID_3_" gradientUnits="userSpaceOnUse" x1="131.52" y1="230.7164" x2="67.1734" y2="166.3698" gradientTransform="matrix(1 0 0 -1 0 285.8898)">
	<stop  offset="0" style="stop-color:#FF8126"/>
	<stop  offset="1" style="stop-color:#FF117E"/>
</linearGradient>
<path style="fill:url(#SVGID_3_);" d="M67.2,55.2c17.8-17.8,46.6-17.8,64.3,0l0,0c17.8,17.8,17.8,46.6,0,64.3l-32.2,32.2l-32.2-32.2
	C49.4,101.8,49.4,72.9,67.2,55.2L67.2,55.2z"/>
<linearGradient id="SVGID_4_" gradientUnits="userSpaceOnUse" x1="99.5" y1="137.8898" x2="99.5" y2="127.8898" gradientTransform="matrix(1 0 0 -1 0 285.8898)">
	<stop  offset="0" style="stop-color:#FF8126"/>
	<stop  offset="1" style="stop-color:#FF117E"/>
</linearGradient>
<path style="fill-rule:evenodd;clip-rule:evenodd;fill:url(#SVGID_4_);" d="M90.5,149.5c-2,2-2,5.1,0,7.1c2,2,5.1,2,7.1,0l2-2l2,2
	c2,2,5.1,2,7.1,0c2-2,2-5.1,0-7.1c-2-2-5.1-2-7.1,0l-2,2l-2-2C95.6,147.5,92.4,147.5,90.5,149.5z"/>
<path style="fill:none;stroke:#FFC300;stroke-width:1.2;stroke-linecap:round;stroke-linejoin:round;" d="M42,215.7
	c0,0,1.2,11.8,1.7,15.5c0.2,1.4,0,1.6,0,7c0,5.3,4.2,9.2,4.2,13.4s-1.2,7.3-1.1,9"/>
<linearGradient id="SVGID_5_" gradientUnits="userSpaceOnUse" x1="43.9524" y1="132.7692" x2="43.7977" y2="55.1102" gradientTransform="matrix(1 0 0 -1 0 285.8898)">
	<stop  offset="0" style="stop-color:#EFBFD5"/>
	<stop  offset="1" style="stop-color:#9D61FD"/>
</linearGradient>
<path style="fill:url(#SVGID_5_);" d="M24.5,172.5c10.7-10.7,28.1-10.7,38.8,0l0,0c10.7,10.7,10.8,28.2,0,38.9L44,230.8l-19.5-19.5
	C13.8,200.5,13.8,183.2,24.5,172.5L24.5,172.5z"/>
<linearGradient id="SVGID_6_" gradientUnits="userSpaceOnUse" x1="41.6559" y1="59.3235" x2="46.3438" y2="49.4765" gradientTransform="matrix(1 0 0 -1 0 285.8898)">
	<stop  offset="0" style="stop-color:#EFBFD5"/>
	<stop  offset="1" style="stop-color:#9D61FD"/>
</linearGradient>
<path style="fill-rule:evenodd;clip-rule:evenodd;fill:url(#SVGID_6_);" d="M49.5,233.6c1.2-1.2,1.2-3.1,0-4.3
	c-1.2-1.2-3.1-1.2-4.3,0l-1.2,1.2l-1.2-1.2c-1.2-1.2-3.1-1.2-4.3,0c-1.2,1.2-1.2,3.1,0,4.3c1.2,1.2,3.1,1.2,4.3,0l1.2-1.2l1.2,1.2
	C46.4,234.8,48.3,234.8,49.5,233.6z"/>
<path style="fill:none;stroke:#EC610A;stroke-width:2;stroke-linecap:round;stroke-linejoin:round;" d="M182.3,208.8
	c0,0,2.1,19.6,2.9,25.7c0.3,2.3,0,2.7,0,11.5c0,8.8,7,15.3,7,22.3s-2,12.2-1.8,14.9"/>
<linearGradient id="SVGID_7_" gradientUnits="userSpaceOnUse" x1="185.3465" y1="180.8898" x2="185.3465" y2="52.1968" gradientTransform="matrix(1 0 0 -1 0 285.8898)">
	<stop  offset="0" style="stop-color:#23BCBA"/>
	<stop  offset="1" style="stop-color:#45E994"/>
</linearGradient>
<path style="fill:url(#SVGID_7_);" d="M153.2,137.2c17.8-17.8,46.6-17.8,64.3,0l0,0c17.8,17.8,17.8,46.6,0,64.3l-32.2,32.2
	l-32.2-32.2C135.4,183.8,135.4,154.9,153.2,137.2L153.2,137.2z"/>
<linearGradient id="SVGID_8_" gradientUnits="userSpaceOnUse" x1="181.6186" y1="59.0412" x2="189.3816" y2="42.7382" gradientTransform="matrix(1 0 0 -1 0 285.8898)">
	<stop  offset="0" style="stop-color:#23BCBA"/>
	<stop  offset="1" style="stop-color:#45E994"/>
</linearGradient>
<path style="fill-rule:evenodd;clip-rule:evenodd;fill:url(#SVGID_8_);" d="M176.5,231.5c-2,2-2,5.1,0,7.1c2,2,5.1,2,7.1,0l2-2l2,2
	c2,2,5.1,2,7.1,0c2-2,2-5.1,0-7.1c-2-2-5.1-2-7.1,0l-2,2l-2-2C181.6,229.5,178.4,229.5,176.5,231.5z"/>
</svg>
