<?xml version="1.0" encoding="utf-8"?>
<!-- Generator: Adobe Illustrator 25.2.3, SVG Export Plug-In . SVG Version: 6.00 Build 0)  -->
<svg version="1.1" id="Layer_1" xmlns="http://www.w3.org/2000/svg" xmlns:xlink="http://www.w3.org/1999/xlink" x="0px" y="0px"
	 viewBox="0 0 161 167" style="enable-background:new 0 0 161 167;" xml:space="preserve">
<g>
	<path style="fill-rule:evenodd;clip-rule:evenodd;fill:#FFC300;" d="M154.5,11.2h-28.2l-7.2,60.9h10c16.9,0,30.6-13.6,30.6-30.5
		V16.4C159.8,13.5,157.4,11.2,154.5,11.2z M147.7,20.7h-21.2l-2.6,41.9l7.4-2.1c10.2-2.8,17.5-11.8,18.1-22.3l0.9-14.8
		c0-0.1,0-0.1,0-0.2C150.3,21.8,149.1,20.7,147.7,20.7z"/>
</g>
<g>
	<g>
		<path style="fill-rule:evenodd;clip-rule:evenodd;fill:#FFC300;" d="M6.5,11.2h28.2l7.2,60.9h-10c-16.9,0-30.6-13.6-30.6-30.5
			V16.4C1.2,13.5,3.6,11.2,6.5,11.2z M13.3,20.7h21.2l2.6,41.9l-7.4-2.1c-10.2-2.8-17.5-11.8-18.1-22.3l-0.9-14.8c0-0.1,0-0.1,0-0.2
			C10.7,21.8,11.9,20.7,13.3,20.7z"/>
	</g>
</g>
<g>
	<path style="fill:#FFC300;" d="M31.6,151.4h97.8c1.1,0,1.9,0.9,1.9,1.9l0,0c0,1.1-0.9,1.9-1.9,1.9H31.6c-1.1,0-1.9-0.9-1.9-1.9l0,0
		C29.7,152.3,30.5,151.4,31.6,151.4z"/>
</g>
<g>
	<g>
		<path style="fill-rule:evenodd;clip-rule:evenodd;fill:#FFC300;" d="M37.5,0.7h43h0.3h43c1.4,0,2.6,1.2,2.6,2.6v42.9
			c0,0,0,18.9-14.2,35.4c-4.1,4.8-8.3,8.3-12,11.4c-8.1,6.8-14,11.8-12.7,24.3l-6.7,0.1v0l-0.1,0l-0.1,0v0l-6.7-0.1
			c1.3-12.5-4.6-17.5-12.7-24.3c-3.7-3.1-7.8-6.6-12-11.4C34.9,65,34.9,46.1,34.9,46.1V3.3C34.9,1.8,36,0.7,37.5,0.7z"/>
	</g>
</g>
<g>
	<path style="fill:#FFC300;" d="M14.7,163.1h20.9c1.1,0,1.9,0.9,1.9,1.9l0,0c0,1.1-0.9,1.9-1.9,1.9H14.7c-1.1,0-1.9-0.9-1.9-1.9l0,0
		C12.7,164,13.6,163.1,14.7,163.1z"/>
</g>
<g>
	<rect x="47.9" y="116.7" style="fill:#EC610A;" width="65.2" height="35"/>
</g>
<g>
	<rect x="58.3" y="124.5" style="fill:#FFC300;" width="44.3" height="19.5"/>
</g>
<g>
	<path style="fill:#FFC300;" d="M53.8,163.1h15.7c1.1,0,1.9,0.9,1.9,1.9l0,0c0,1.1-0.9,1.9-1.9,1.9H53.8c-1.1,0-1.9-0.9-1.9-1.9l0,0
		C51.8,164,52.7,163.1,53.8,163.1z"/>
</g>
<g>
	<path style="fill-rule:evenodd;clip-rule:evenodd;fill:#EC610A;" d="M80.5,55.1l-14.6,7.6l2.8-16.1L56.9,35.2l16.3-2.4l7.3-14.7
		l7.3,14.7l16.3,2.4L92.3,46.6l2.8,16.1L80.5,55.1z"/>
</g>
<g>
	<path style="fill:#EC610A;" d="M50.6,65.8c-0.5,0-0.9-0.3-1.2-0.7c-4.9-9.8-6-27.7-6-28.4c0-0.7,0.5-1.3,1.2-1.4
		c0.7,0,1.3,0.5,1.4,1.2c0,0.2,1.1,18.1,5.7,27.4c0.3,0.6,0.1,1.4-0.6,1.7C51,65.8,50.8,65.8,50.6,65.8z"/>
</g>
<g>
	<path style="fill:#EC610A;" d="M60.6,81.6c-0.3,0-0.7-0.1-0.9-0.4c-2.4-2.3-5.9-7.5-6.1-7.8c-0.4-0.6-0.2-1.4,0.3-1.8
		c0.6-0.4,1.4-0.2,1.8,0.3c0,0.1,3.5,5.2,5.7,7.3c0.5,0.5,0.5,1.3,0,1.8C61.3,81.5,60.9,81.6,60.6,81.6z"/>
</g>
<g>
	<path style="fill:#FFC300;" d="M81.1,163.1h9.1c1.1,0,1.9,0.9,1.9,1.9l0,0c0,1.1-0.9,1.9-1.9,1.9h-9.1c-1.1,0-1.9-0.9-1.9-1.9l0,0
		C79.2,164,80.1,163.1,81.1,163.1z"/>
</g>
<g>
	<path style="fill:#FFC300;" d="M107.2,163.1h49.5c1.1,0,1.9,0.9,1.9,1.9l0,0c0,1.1-0.9,1.9-1.9,1.9h-49.5c-1.1,0-1.9-0.9-1.9-1.9
		l0,0C105.3,164,106.1,163.1,107.2,163.1z"/>
</g>
</svg>
